<svg xmlns="http://www.w3.org/2000/svg" width="257.891" height="32.32" viewBox="0 0 257.891 32.32">
  <g id="logo" transform="translate(-54.972 -20)">
    <g id="daedongmobility_CI" transform="translate(-328.779 478.105)">
      <g id="그룹_3535" data-name="그룹 3535" transform="translate(554.743 -453.527)">
        <path id="합치기_1" data-name="합치기 1" d="M-200.54-24.473l.563-2.646H-198c.809,0,1.128-.344,2.393-2.468l-1.857-13.931h2.993l1.216,9.707,5.341-9.707h3l-6.5,11.65-2.214,3.962a6.917,6.917,0,0,1-2.852,2.936,6.975,6.975,0,0,1-2.215.5Zm-33.88-5.116c-.017,0-.032,0-.046,0h-1.262a.937.937,0,0,1-.992-1.172l.739-3.474,3.045-14.339h2.946l-3.472,16.343h2.706c2.862,0,3.745-2,4.269-4.464s.492-4.466-2.372-4.466a4.253,4.253,0,0,0-1.757.338l.6-2.828a9.624,9.624,0,0,1,1.719-.153c4.871,0,5.685,3.183,4.851,7.108s-3,7.11-7.874,7.11ZM-249.8-36.7c.837-3.925,3-7.108,7.873-7.108s5.685,3.183,4.85,7.108-3,7.11-7.873,7.11S-250.637-32.774-249.8-36.7Zm3.04,0c-.522,2.466-.49,4.464,2.374,4.464s3.743-2,4.267-4.464.492-4.466-2.371-4.466S-246.24-39.164-246.765-36.7Zm44.042,6.815c-2.442,0-2.667-1.187-2.23-3.241l1.657-7.794h-2.087l.552-2.6h2.087l.7-3.281h2.944l-.7,3.281h2.089l-.553,2.6h-2.087l-1.683,7.924a.369.369,0,0,0,.373.466h1.615l-.562,2.644Zm-9.425,0,2.9-13.633h2.942l-2.9,13.633Zm-5.555,0,3.971-18.694h2.941l-3.972,18.694Zm-5.558,0,2.9-13.633h2.942l-2.9,13.633Zm-32.565,0,2.124-9.991c.149-.706-.764-1.284-2.039-1.284s-2.434.579-2.587,1.284l-2.124,9.991H-263.4l2.124-9.991c.149-.706-.764-1.284-2.038-1.284s-2.434.579-2.587,1.284l-2.123,9.991h-2.944l2.34-11.008c.342-1.613,2.973-2.915,5.875-2.915a6.688,6.688,0,0,1,3.6.892,8.91,8.91,0,0,1,3.975-.892c2.9,0,4.979,1.3,4.633,2.915l-2.335,11.008Zm48.38-15.135h-.011c-1.235,0-1.649-.532-1.39-1.779a1.941,1.941,0,0,1,2.146-1.78l.01,0,.013,0c1.235,0,1.648.534,1.388,1.78a1.936,1.936,0,0,1-2.143,1.779Zm-11.113,0h-.012c-1.233,0-1.652-.532-1.391-1.779a1.94,1.94,0,0,1,2.144-1.78l.014,0,.011,0c1.234,0,1.65.534,1.391,1.78a1.94,1.94,0,0,1-2.147,1.779Z" transform="translate(270.964 48.578)"/>
        <path id="합치기_1_-_윤곽선" data-name="합치기 1 - 윤곽선" d="M-198.7-23.973h-2.456l.776-3.646H-198c.484,0,.685-.09,1.874-2.075l-1.549-11.622-.191.9h-2.087l-1.57,7.391h2.086l-.774,3.644h-2.515a2.948,2.948,0,0,1-2.455-.845,3.62,3.62,0,0,1-.264-3l1.528-7.19H-206l.764-3.6h2.087l.7-3.281h3.967l-.7,3.281h5.158l1.079,8.616,4.74-8.616h4.143L-193.2-27.662a7.457,7.457,0,0,1-3.062,3.137l-.025.012A7.407,7.407,0,0,1-198.7-23.973Zm-1.221-1h1.217a6.58,6.58,0,0,0,2-.45,6.493,6.493,0,0,0,2.63-2.727l2.214-3.962,6.088-10.906h-1.848l-5.941,10.8-1.353-10.8h-1.98l1.8,13.538-.089.149c-1.2,2.015-1.674,2.712-2.823,2.712h-1.574Zm-4.843-16.447h2.087l-1.785,8.4c-.243,1.142-.223,1.809.063,2.162a2.166,2.166,0,0,0,1.678.475h1.706l.349-1.644h-1a.881.881,0,0,1-.687-.316.9.9,0,0,1-.176-.749V-33.1l1.767-8.321h2.087l.34-1.6h-2.089l.7-3.281h-1.921l-.7,3.281h-2.087Zm-26.554,12.33h-3.1a.627.627,0,0,1-.074,0h-1.233a1.462,1.462,0,0,1-1.2-.5,1.635,1.635,0,0,1-.285-1.274v-.006l.739-3.474,3.129-14.735h3.968l-1.06,4.991.328-.059a10.067,10.067,0,0,1,1.808-.161c2.117,0,3.665.585,4.6,1.74,1.056,1.3,1.306,3.314.741,5.972a10.526,10.526,0,0,1-2.554,5.272A7.779,7.779,0,0,1-231.32-29.089Zm-3.073-1h3.073c3.955,0,6.439-2.259,7.385-6.714.5-2.349.318-4.077-.54-5.135-.736-.909-2.022-1.369-3.822-1.369a9.1,9.1,0,0,0-1.3.092l-.351,1.656a5.42,5.42,0,0,1,1.09-.105,3.064,3.064,0,0,1,2.545.96c.83,1.024.625,2.652.315,4.109a8.189,8.189,0,0,1-1.356,3.365,4.064,4.064,0,0,1-3.4,1.5h-3.324l3.472-16.343h-1.923l-3.7,17.412a.642.642,0,0,0,.08.445.574.574,0,0,0,.422.128h1.262A.592.592,0,0,1-234.393-30.089Zm1.549-2.646h2.089c2.428,0,3.246-1.556,3.78-4.068.245-1.155.454-2.57-.114-3.272a2.163,2.163,0,0,0-1.768-.59,3.8,3.8,0,0,0-1.553.295l-.9.4Zm-12.11,3.646c-2.115,0-3.661-.585-4.6-1.739-1.057-1.3-1.307-3.315-.743-5.975a10.547,10.547,0,0,1,2.555-5.271,7.776,7.776,0,0,1,5.808-2.233c2.117,0,3.664.585,4.6,1.74,1.056,1.3,1.305,3.314.74,5.972a10.537,10.537,0,0,1-2.555,5.272A7.776,7.776,0,0,1-244.955-29.089Zm3.023-14.218c-4.006,0-6.421,2.2-7.384,6.712-.5,2.35-.316,4.079.542,5.137a4.682,4.682,0,0,0,3.819,1.368c3.952,0,6.436-2.259,7.384-6.714.5-2.348.318-4.076-.539-5.135C-238.845-42.847-240.131-43.308-241.932-43.308ZM-208.8-29.384h-3.966l3.113-14.633h3.964Zm-2.731-1h1.921l2.685-12.633h-1.92Zm-2.827,1h-3.963l4.183-19.694h3.964Zm-2.728-1h1.918l3.759-17.694h-1.919Zm-2.825,1h-3.968l3.112-14.633h3.964Zm-2.733-1h1.923l2.684-12.633h-1.92Zm-29.832,1h-3.967l2.252-10.595a.237.237,0,0,0-.066-.213,2.019,2.019,0,0,0-1.485-.468c-1.164,0-2.02.527-2.1.89l-2.208,10.386h-3.964l.125-.6,2.124-9.991a.237.237,0,0,0-.066-.213,2.016,2.016,0,0,0-1.483-.468c-1.163,0-2.02.527-2.1.89l-2.207,10.385h-3.966L-269.113-41c.394-1.857,3.189-3.311,6.364-3.311a7.464,7.464,0,0,1,3.622.823,9.53,9.53,0,0,1,3.949-.823,6.011,6.011,0,0,1,4.649,1.664,2.158,2.158,0,0,1,.473,1.856Zm-2.732-1h1.922L-251.034-41a1.175,1.175,0,0,0-.273-1.019,5.138,5.138,0,0,0-3.871-1.292,8.368,8.368,0,0,0-3.747.837l-.259.133-.243-.16a6.273,6.273,0,0,0-3.321-.81c-2.9,0-5.128,1.3-5.386,2.519l-2.212,10.4h1.922l2.039-9.595c.208-.959,1.53-1.68,3.077-1.68a2.912,2.912,0,0,1,2.26.838,1.238,1.238,0,0,1,.267,1.05l-2,9.387h1.922l2.04-9.595c.207-.959,1.529-1.68,3.076-1.68a2.915,2.915,0,0,1,2.262.838,1.238,1.238,0,0,1,.267,1.05Zm10.817-1.351a3.067,3.067,0,0,1-2.546-.96c-.829-1.023-.625-2.65-.317-4.108a8.207,8.207,0,0,1,1.356-3.365,4.064,4.064,0,0,1,3.4-1.5,3.065,3.065,0,0,1,2.547.962c.83,1.026.624,2.653.313,4.108a8.2,8.2,0,0,1-1.355,3.364A4.062,4.062,0,0,1-244.391-31.735Zm1.9-8.93c-2.427,0-3.246,1.557-3.781,4.07-.244,1.154-.452,2.57.116,3.27a2.165,2.165,0,0,0,1.77.59c2.426,0,3.244-1.556,3.778-4.068.246-1.154.456-2.568-.113-3.271A2.163,2.163,0,0,0-242.5-40.665Zm35.063-3.854h-.024a1.976,1.976,0,0,1-1.632-.593,2.063,2.063,0,0,1-.247-1.788,2.424,2.424,0,0,1,2.636-2.178h.045a1.959,1.959,0,0,1,1.609.594A2.063,2.063,0,0,1-204.8-46.7,2.419,2.419,0,0,1-207.432-44.519Zm-.014-1h.03c.99,0,1.419-.368,1.638-1.384a1.252,1.252,0,0,0-.043-.951,1.184,1.184,0,0,0-.827-.224l-.042,0-.054,0c-.971.011-1.4.377-1.614,1.386a1.25,1.25,0,0,0,.044.949,1.186,1.186,0,0,0,.827.224h.041Zm-11.1,1h-.023a1.976,1.976,0,0,1-1.634-.6,2.058,2.058,0,0,1-.245-1.787,2.422,2.422,0,0,1,2.633-2.177h.025a1.976,1.976,0,0,1,1.633.594,2.062,2.062,0,0,1,.247,1.788A2.424,2.424,0,0,1-218.549-44.519Zm.684-3.559c-.967.011-1.39.379-1.608,1.386a1.245,1.245,0,0,0,.043.948,1.2,1.2,0,0,0,.84.226l.034,0,.028,0c.988-.005,1.417-.37,1.637-1.385a1.248,1.248,0,0,0-.045-.949,1.151,1.151,0,0,0-.8-.225h-.12Z" transform="translate(270.964 48.578)" fill="rgba(0,0,0,0)"/>
      </g>
      <g id="그룹_3542" data-name="그룹 3542" transform="translate(383.751 -458.105)">
        <g id="그룹_3539" data-name="그룹 3539" transform="translate(41.929 4.486)">
          <g id="그룹_3538" data-name="그룹 3538">
            <g id="그룹_3537" data-name="그룹 3537">
              <path id="패스_440" data-name="패스 440" d="M795.226-428.364a1.1,1.1,0,0,0-.88-1.281,26.822,26.822,0,0,0-6.4-.8h-.507a31.179,31.179,0,0,0-6.749.8,1.843,1.843,0,0,0-1.421,1.28l-2.527,11.889h3.984l2.3-10.815a18.077,18.077,0,0,1,3.746-.43h.677a15.629,15.629,0,0,1,3.569.433l-2.3,10.813H792.7Z" transform="translate(-686.195 435.282)" fill="#ef4123"/>
              <path id="패스_441" data-name="패스 441" d="M579.361-429.641a26.715,26.715,0,0,0-6.413-.8h-.509a32.049,32.049,0,0,0-7.824,1.035l.609,2.529a34.429,34.429,0,0,1,6.576-.843h.651a15.626,15.626,0,0,1,3.571.433l-.607,2.856H563.438l-1.415,6.667a1.111,1.111,0,0,0,.952,1.283,26.948,26.948,0,0,0,6.337.777h.506a31.117,31.117,0,0,0,6.655-.776,1.876,1.876,0,0,0,1.511-1.29l2.253-10.6A1.1,1.1,0,0,0,579.361-429.641Zm-9.222,11.213H569.8a14.244,14.244,0,0,1-3.552-.474l.6-2.812h7.991l-.6,2.811a16.735,16.735,0,0,1-3.762.475Z" transform="translate(-543.848 435.282)" fill="#ef4123"/>
              <path id="패스_442" data-name="패스 442" d="M634.108-428.364a1.114,1.114,0,0,0-.962-1.3,26.9,26.9,0,0,0-6.325-.775h-.5a31.41,31.41,0,0,0-6.664.776,1.886,1.886,0,0,0-1.5,1.286l-2.254,10.621a1.093,1.093,0,0,0,.891,1.256,26.7,26.7,0,0,0,6.4.8h.508a32.194,32.194,0,0,0,7.822-1.031l-.605-2.528a34.733,34.733,0,0,1-6.577.839h-.651a15.662,15.662,0,0,1-3.571-.43l.605-2.857h11.977Zm-12.215,1.119a16.5,16.5,0,0,1,3.764-.475h.676a14,14,0,0,1,3.551.475l-.6,2.811H621.3Z" transform="translate(-579.559 435.282)" fill="#ef4123"/>
              <path id="패스_443" data-name="패스 443" d="M527.831-444.8h-3.984l-3.481,16.378a16.748,16.748,0,0,1-3.763.475h-.675a14.133,14.133,0,0,1-3.553-.474l1.773-8.344a16.572,16.572,0,0,1,3.755-.474h.675a13.95,13.95,0,0,1,3.284.409l-.732-3.045c-.707-.056-1.4-.088-2.055-.088h-.5a31.156,31.156,0,0,0-6.747.8,1.836,1.836,0,0,0-1.424,1.28l-2.25,10.593A1.11,1.11,0,0,0,509.1-426a26.956,26.956,0,0,0,6.34.777h.506A31.092,31.092,0,0,0,522.6-426a1.861,1.861,0,0,0,1.516-1.3Z" transform="translate(-508.134 444.797)" fill="#ef4123"/>
              <g id="그룹_3536" data-name="그룹 3536" transform="translate(54.48)">
                <path id="패스_444" data-name="패스 444" d="M730.353-424.359v-.005l.009-.038Z" transform="translate(-709.925 431.278)" fill="#ef4123"/>
                <path id="패스_445" data-name="패스 445" d="M741.858-428.364a1.1,1.1,0,0,0-.882-1.281,26.831,26.831,0,0,0-6.405-.8h-.507a31.163,31.163,0,0,0-6.747.8,1.831,1.831,0,0,0-1.424,1.275l-2.25,10.583a1.111,1.111,0,0,0,.947,1.3,26.962,26.962,0,0,0,6.338.777h.508a31.118,31.118,0,0,0,6.658-.776,1.856,1.856,0,0,0,1.515-1.3Zm-5.993,9.458a16.7,16.7,0,0,1-3.769.477h-.677a14.159,14.159,0,0,1-3.554-.474l1.775-8.344a16.579,16.579,0,0,1,3.759-.474h.676a14.129,14.129,0,0,1,3.561.475Z" transform="translate(-705.465 435.282)" fill="#ef4123"/>
                <path id="패스_446" data-name="패스 446" d="M689.449-444.8h-3.985l-3.478,16.378a16.77,16.77,0,0,1-3.764.475h-.677a14.133,14.133,0,0,1-3.551-.474l1.773-8.344a16.558,16.558,0,0,1,3.756-.474h.672a13.951,13.951,0,0,1,3.286.409l-.732-3.045c-.709-.056-1.4-.088-2.055-.088h-.5a31.242,31.242,0,0,0-6.747.8,1.854,1.854,0,0,0-1.421,1.267L669.772-427.3a1.111,1.111,0,0,0,.949,1.3,26.951,26.951,0,0,0,6.338.777h.5a31.117,31.117,0,0,0,6.655-.776,1.855,1.855,0,0,0,1.513-1.3Z" transform="translate(-669.753 444.797)" fill="#ef4123"/>
              </g>
            </g>
            <path id="패스_447" data-name="패스 447" d="M839.123-421.715h5.088l-.6,2.812a16.725,16.725,0,0,1-3.753.474h-.685a14.17,14.17,0,0,1-3.553-.474l1.775-8.344a16.568,16.568,0,0,1,3.756-.474h.675a29.238,29.238,0,0,1,6.2.841l1.682-2.529c-.326-.1-.657-.186-.991-.269a27.853,27.853,0,0,0-6.39-.766h-.512a31.154,31.154,0,0,0-6.745.8,1.831,1.831,0,0,0-1.424,1.275l-2.25,10.583a1.11,1.11,0,0,0,.948,1.3,26.951,26.951,0,0,0,6.34.777h.5a31.047,31.047,0,0,0,6.659-.777h.005a2.124,2.124,0,0,0,1.247-.759,1.5,1.5,0,0,0,.261-.543l1.413-6.648H839.7Z" transform="translate(-722.418 435.282)" fill="#ef4123"/>
          </g>
        </g>
        <g id="그룹_3541" data-name="그룹 3541" transform="translate(0)">
          <path id="패스_448" data-name="패스 448" d="M415.431-454.954c-3.448-2.842-10.622-3.151-13.549-3.151l-.393,0-.4,0c-2.925,0-10.1.309-13.549,3.151a10.591,10.591,0,0,0-3.794,8.541,23.188,23.188,0,0,0,4.646,13.9,16.343,16.343,0,0,0,13.092,6.728,16.344,16.344,0,0,0,13.091-6.728,23.194,23.194,0,0,0,4.645-13.9A10.576,10.576,0,0,0,415.431-454.954Z" transform="translate(-383.751 458.105)" fill="#fff"/>
          <g id="그룹_3540" data-name="그룹 3540">
            <path id="패스_449" data-name="패스 449" d="M417.91-449.86c-3.551-2.931-12.758-2.725-12.758-2.725s-9.207-.206-12.76,2.725a8.719,8.719,0,0,0-3.116,7.1c0,9.024,6.066,18.77,15.876,18.77s15.877-9.746,15.877-18.77A8.729,8.729,0,0,0,417.91-449.86Z" transform="translate(-387.414 454.448)"/>
            <path id="패스_450" data-name="패스 450" d="M422.9-437h-4.759l.417-1.766-2.4-3.888-1.343,5.69h-11.7L403.1-437h0l-1.334-5.654-2.4,3.888L399.78-437h-4.759l3.276,3.274h2.257l2.5,10.574,3.887,2.4-3.767-15.959,3.143,2.949h5.291l3.142-2.949-3.765,15.959,3.887-2.4,2.5-10.574h2.26Z" transform="translate(-391.222 447.863)" fill="#fff"/>
            <path id="패스_451" data-name="패스 451" d="M415.431-454.954c-3.448-2.842-10.622-3.151-13.549-3.151l-.393,0-.4,0c-2.925,0-10.1.309-13.549,3.151a10.591,10.591,0,0,0-3.794,8.541,23.188,23.188,0,0,0,4.646,13.9,16.343,16.343,0,0,0,13.092,6.728,16.344,16.344,0,0,0,13.091-6.728,23.194,23.194,0,0,0,4.645-13.9A10.576,10.576,0,0,0,415.431-454.954Zm-13.942,28.609c-10.611,0-17.18-10.418-17.18-20.069a10.045,10.045,0,0,1,3.59-8.109c1.509-1.245,3.972-2.122,7.317-2.61a43,43,0,0,1,5.877-.415c.2,0,.339,0,.4,0s.19,0,.393,0a42.949,42.949,0,0,1,5.875.415c3.349.488,5.81,1.366,7.32,2.61a10.047,10.047,0,0,1,3.591,8.108C418.669-436.763,412.1-426.345,401.489-426.345Z" transform="translate(-383.751 458.105)"/>
          </g>
        </g>
      </g>
    </g>
  </g>
</svg>
