<svg xmlns="http://www.w3.org/2000/svg" width="1060" height="330" version="1.2" viewBox="0 0 795 247.5"><rect width="182.372" height="247.5" fill="#ff3a4a" ry="4.65"/><rect width="182.372" height="247.5" x="612.628" fill="#ff3a4a" ry="4.65"/><rect width="182.372" height="247.5" x="408.419" fill="#ff3a4a" ry="4.65"/><rect width="182.372" height="247.5" x="204.209" fill="#ff3a4a" ry="4.65"/><path fill="#fff" d="M498.9 31.7c-12.446-.184-25.057 3.249-34.783 11.075-9.443 7.954-13.993 20.696-13.118 32.855-1.165 10.22.395 20.86 5.873 29.697 7.243 13.396 21.617 20.18 32.729 29.822 9.597 7.42 21.248 14.084 25.979 25.853 1.701 7.783 2.526 17.443-3.156 23.826-6.81 7.012-19.28 6.718-26.623.746-2.136-1.783-4.86-4.953-4.86-8.575 0-7.493-.034-16.404-.034-16.404H450.75c0 16.939-.754 24.662 6.022 35.006 7.232 12.535 21.695 19.374 35.827 20.143 6.25.4 12.634.725 18.746-.904 13.012-2.166 24.602-10.457 31.13-21.851 5.79-11.316 4.47-24.456 3.135-36.623-2.755-13.397-12.741-23.699-23.52-31.377-11.874-9.632-25.4-17.468-35.671-28.925-6.559-6.575-5.384-16.062-5.23-24.483.11-8.834 8.454-13.648 17.284-13.87 8.83-.22 18.232 6.1 18.232 16.738V87.75h30.045c0-14.009.242-19.301-2.377-28.497-5.15-14.134-18.79-23.445-33.192-26.19-4-.837-8.131-1.3-12.28-1.362zm204.098 0c-12.448-.184-25.06 3.249-34.786 11.075-9.443 7.954-13.992 20.696-13.118 32.855-1.164 10.22.395 20.86 5.873 29.697 7.244 13.396 21.617 20.18 32.729 29.822 9.597 7.42 21.25 14.084 25.98 25.853 1.702 7.783 2.525 17.443-3.156 23.826-6.811 7.012-19.28 6.718-26.624.746-2.135-1.783-4.86-4.953-4.86-8.575 0-7.493-.033-16.404-.033-16.404h-30.158c0 16.939-.754 24.662 6.022 35.006 7.232 12.535 21.695 19.374 35.827 20.143 6.25.4 12.634.725 18.746-.904 13.012-2.166 24.604-10.457 31.13-21.851 5.79-11.316 4.47-24.456 3.136-36.623-2.755-13.397-12.742-23.699-23.521-31.377-11.874-9.632-25.399-17.468-35.67-28.925-6.558-6.575-5.385-16.062-5.23-24.483.108-8.834 8.453-13.648 17.283-13.87 8.83-.22 18.232 6.1 18.232 16.738V87.75h30.045c0-14.009.243-19.301-2.377-28.497-5.15-14.134-18.79-23.445-33.192-26.19-4-.837-8.13-1.3-12.278-1.362zM89.423 33.697c-3.421.015-6.967.08-10.673.08-14.823 0-21.5.158-32.25 0V213H75v-54c15.932-.413 33.391 2.214 47.518-6.99 11.41-6.71 17.606-20.355 16.273-33.384-.283-18.379.386-36.828-.359-55.168-2.586-11.413-9.555-21.142-20.626-25.31-8.979-4.077-18.12-4.497-28.383-4.452zm184.446.533L243.75 213.75h28.33l4.982-31.5h37.034l4.841 30.75h28.83L317.665 34.229h-43.796zM75 61.024h22.803c11.053 0 13.897 8.451 13.897 14.69v42.787c0 7.128-6.667 11.999-13.093 11.999H75V61.024zm220.718 5.351 14.8 88.875H281.25l14.468-88.875z"/></svg>